<svg width="180" height="24" viewBox="0 0 180 24" fill="none" xmlns="http://www.w3.org/2000/svg">
<g clip-path="url(#clip0_9429_11672)">
<path fill-rule="evenodd" clip-rule="evenodd" d="M0 2.11764C0 0.948102 0.924399 0 2.0647 0H21.3352C22.4756 0 23.4 0.948102 23.4 2.11764V21.8823C23.4 23.0519 22.4756 24 21.3352 24H2.0647C0.924399 24 0 23.0519 0 21.8823V2.11764ZM4.47352 2.54118C3.33322 2.54118 2.40882 3.48928 2.40882 4.65882V19.4823C2.40882 20.6519 3.33322 21.6 4.47352 21.6H18.9265C20.0668 21.6 20.9911 20.6519 20.9911 19.4823V4.65882C20.9911 3.48928 20.0668 2.54118 18.9265 2.54118H4.47352ZM4.4047 3.38823C3.83456 3.38823 3.37234 3.86229 3.37234 4.44706V19.7647C3.37234 20.3495 3.83456 20.8236 4.4047 20.8236H19.133C19.7032 20.8236 20.1652 20.3495 20.1652 19.7647V4.44706C20.1652 3.86229 19.7032 3.38823 19.133 3.38823H4.4047ZM8.07162 10.5261L9.62433 13.2706H11.265L9.55818 10.2889C10.006 10.0781 10.3657 9.76569 10.6374 9.35151C10.909 8.92991 11.0448 8.47434 11.0448 7.98494C11.0448 7.26211 10.7951 6.64471 10.296 6.1327C9.79686 5.62072 9.19116 5.3647 8.47906 5.3647H5.39576V13.2706H6.91538V10.5261H8.07162ZM6.91538 9.15953V6.82164H8.47906C8.76536 6.82164 9.01125 6.93459 9.21681 7.16047C9.42246 7.38636 9.52515 7.66115 9.52515 7.98494C9.52515 8.30874 9.42246 8.58727 9.21681 8.8207C9.01125 9.04659 8.76536 9.15953 8.47906 9.15953H6.91538Z" fill="#0F1214"/>
<path d="M39.8865 19.3842L36.9561 14.2057H34.2633V19.3842H31.9863V5.1688H37.5303C38.7712 5.1688 39.8206 5.61557 40.6785 6.50911C41.5497 7.38911 41.9853 8.46541 41.9853 9.73803C41.9853 10.6451 41.7279 11.4778 41.2131 12.2359C40.7116 12.9805 40.0515 13.522 39.2331 13.8605L42.3813 19.3842H39.8865ZM34.2633 7.36203V12.114H37.5303C38.1376 12.114 38.6524 11.8839 39.0747 11.4236C39.4971 10.9632 39.7083 10.4014 39.7083 9.73803C39.7083 9.07464 39.4971 8.5128 39.0747 8.05249C38.6524 7.59218 38.1376 7.36203 37.5303 7.36203H34.2633ZM45.1516 15.2414C45.31 16.0131 45.673 16.6088 46.2406 17.0285C46.8082 17.4346 47.5012 17.6377 48.3196 17.6377C49.4548 17.6377 50.3062 17.218 50.8738 16.3786L52.636 17.4346C51.6592 18.9104 50.2138 19.6482 48.2998 19.6482C46.6894 19.6482 45.3892 19.1472 44.3992 18.1454C43.4092 17.13 42.9142 15.8506 42.9142 14.3073C42.9142 12.7909 43.4026 11.5251 44.3794 10.5097C45.3562 9.48077 46.6102 8.96634 48.1414 8.96634C49.5934 8.96634 50.7814 9.4876 51.7054 10.53C52.6426 11.5725 53.1112 12.8384 53.1112 14.3276C53.1112 14.5577 53.0848 14.8623 53.032 15.2414H45.1516ZM45.1318 13.4543H50.953C50.8078 12.6285 50.4712 12.0058 49.9432 11.586C49.4284 11.1663 48.8212 10.9565 48.1216 10.9565C47.3296 10.9565 46.6696 11.1799 46.1416 11.6266C45.6136 12.0734 45.277 12.6826 45.1318 13.4543ZM56.5267 12.0328C56.5267 12.3713 56.7049 12.642 57.0613 12.8451C57.4309 13.0346 57.8731 13.2039 58.3879 13.3528C58.9159 13.4882 59.4439 13.6507 59.9719 13.8402C60.4999 14.0297 60.9421 14.3546 61.2985 14.815C61.6681 15.2617 61.8529 15.8303 61.8529 16.5208C61.8529 17.4956 61.4833 18.2605 60.7441 18.8156C60.0181 19.3706 59.1007 19.6482 57.9919 19.6482C57.0151 19.6482 56.1769 19.4384 55.4773 19.0186C54.7777 18.5989 54.2695 18.0168 53.9527 17.2722L55.7941 16.1756C56.1373 17.1503 56.8699 17.6377 57.9919 17.6377C59.1139 17.6377 59.6749 17.2586 59.6749 16.5005C59.6749 16.1756 59.4901 15.9116 59.1205 15.7085C58.7641 15.5054 58.3219 15.3362 57.7939 15.2008C57.2791 15.0519 56.7577 14.8826 56.2297 14.6931C55.7017 14.5036 55.2529 14.1922 54.8833 13.759C54.5269 13.3122 54.3487 12.7503 54.3487 12.0734C54.3487 11.1393 54.6919 10.3879 55.3783 9.81926C56.0779 9.25065 56.9425 8.96634 57.9721 8.96634C58.7905 8.96634 59.5165 9.15587 60.1501 9.53495C60.7969 9.90049 61.2919 10.4149 61.6351 11.0783L59.8333 12.114C59.4901 11.3423 58.8697 10.9565 57.9721 10.9565C57.5629 10.9565 57.2197 11.0513 56.9425 11.2408C56.6653 11.4168 56.5267 11.6808 56.5267 12.0328ZM70.2892 9.23034H72.4276V19.3842H70.2892V18.0845C69.6425 19.1269 68.6195 19.6482 67.2202 19.6482C66.0851 19.6482 65.1677 19.2759 64.468 18.5313C63.7685 17.7866 63.4186 16.7645 63.4186 15.4648V9.23034H65.557V15.2414C65.557 15.9995 65.755 16.5817 66.151 16.9879C66.547 17.394 67.0883 17.5971 67.7746 17.5971C68.527 17.5971 69.1343 17.3602 69.5962 16.8863C70.0583 16.399 70.2892 15.6611 70.2892 14.6728V9.23034ZM74.9282 19.3842V4.55957H77.0666V19.3842H74.9282ZM85.0737 11.3423H82.6185V16.2162C82.6185 16.6359 82.7109 16.9405 82.8957 17.13C83.0805 17.3061 83.3511 17.4076 83.7075 17.4346C84.0771 17.4482 84.5325 17.4414 85.0737 17.4143V19.3842C83.4369 19.5873 82.2621 19.4451 81.5493 18.9577C80.8365 18.4568 80.4801 17.5429 80.4801 16.2162V11.3423H78.6585V9.23034H80.4801V7.03711L82.6185 6.38726V9.23034H85.0737V11.3423ZM101.088 18.3079C100.112 19.2014 98.8509 19.6482 97.3065 19.6482C95.7621 19.6482 94.5021 19.2014 93.5247 18.3079C92.5482 17.4008 92.0595 16.1891 92.0595 14.6728V5.1688H94.3365V14.5306C94.3365 15.3971 94.5813 16.0876 95.0691 16.602C95.5713 17.1165 96.3165 17.3737 97.3065 17.3737C98.2965 17.3737 99.0363 17.1165 99.5241 16.602C100.026 16.0876 100.277 15.3971 100.277 14.5306V5.1688H102.554V14.6728C102.554 16.1891 102.066 17.4008 101.088 18.3079ZM110.241 8.96634C111.377 8.96634 112.294 9.33862 112.994 10.0833C113.694 10.8279 114.043 11.85 114.043 13.1497V19.3842H111.905V13.3731C111.905 12.615 111.707 12.0328 111.311 11.6266C110.915 11.2205 110.374 11.0174 109.687 11.0174C108.935 11.0174 108.328 11.2611 107.865 11.7485C107.404 12.2223 107.172 12.9534 107.172 13.9417V19.3842H105.034V9.23034H107.172V10.53C107.819 9.4876 108.843 8.96634 110.241 8.96634ZM118.366 7.30111C118.101 7.57187 117.784 7.70726 117.415 7.70726C117.045 7.70726 116.722 7.57187 116.445 7.30111C116.18 7.0168 116.049 6.68511 116.049 6.30603C116.049 5.92695 116.18 5.60203 116.445 5.33126C116.709 5.04695 117.032 4.9048 117.415 4.9048C117.798 4.9048 118.121 5.04695 118.385 5.33126C118.649 5.60203 118.781 5.92695 118.781 6.30603C118.781 6.68511 118.643 7.0168 118.366 7.30111ZM116.346 19.3842V9.23034H118.484V19.3842H116.346ZM127.679 9.23034H130.015L126.154 19.3842H123.679L119.818 9.23034H122.155L124.927 16.9473L127.679 9.23034ZM132.666 15.2414C132.824 16.0131 133.188 16.6088 133.755 17.0285C134.323 17.4346 135.016 17.6377 135.834 17.6377C136.97 17.6377 137.821 17.218 138.388 16.3786L140.15 17.4346C139.174 18.9104 137.728 19.6482 135.814 19.6482C134.204 19.6482 132.903 19.1472 131.913 18.1454C130.923 17.13 130.428 15.8506 130.428 14.3073C130.428 12.7909 130.917 11.5251 131.894 10.5097C132.871 9.48077 134.125 8.96634 135.656 8.96634C137.108 8.96634 138.296 9.4876 139.22 10.53C140.157 11.5725 140.625 12.8384 140.625 14.3276C140.625 14.5577 140.599 14.8623 140.546 15.2414H132.666ZM132.646 13.4543H138.467C138.322 12.6285 137.986 12.0058 137.457 11.586C136.943 11.1663 136.336 10.9565 135.636 10.9565C134.844 10.9565 134.184 11.1799 133.656 11.6266C133.128 12.0734 132.792 12.6826 132.646 13.4543ZM144.646 10.9362C145.187 9.67711 146.204 9.04757 147.695 9.04757V11.4236C146.877 11.3694 146.164 11.5725 145.556 12.0328C144.949 12.4796 144.646 13.2242 144.646 14.2666V19.3842H142.507V9.23034H144.646V10.9362ZM150.848 12.0328C150.848 12.3713 151.026 12.642 151.382 12.8451C151.752 13.0346 152.194 13.2039 152.709 13.3528C153.237 13.4882 153.764 13.6507 154.293 13.8402C154.821 14.0297 155.263 14.3546 155.619 14.815C155.989 15.2617 156.174 15.8303 156.174 16.5208C156.174 17.4956 155.804 18.2605 155.065 18.8156C154.339 19.3706 153.422 19.6482 152.313 19.6482C151.336 19.6482 150.497 19.4384 149.798 19.0186C149.099 18.5989 148.59 18.0168 148.274 17.2722L150.115 16.1756C150.458 17.1503 151.19 17.6377 152.313 17.6377C153.435 17.6377 153.996 17.2586 153.996 16.5005C153.996 16.1756 153.811 15.9116 153.441 15.7085C153.085 15.5054 152.643 15.3362 152.115 15.2008C151.6 15.0519 151.079 14.8826 150.551 14.6931C150.022 14.5036 149.574 14.1922 149.204 13.759C148.848 13.3122 148.67 12.7503 148.67 12.0734C148.67 11.1393 149.012 10.3879 149.699 9.81926C150.398 9.25065 151.263 8.96634 152.293 8.96634C153.111 8.96634 153.837 9.15587 154.471 9.53495C155.118 9.90049 155.613 10.4149 155.956 11.0783L154.154 12.114C153.811 11.3423 153.19 10.9565 152.293 10.9565C151.883 10.9565 151.541 11.0513 151.263 11.2408C150.986 11.4168 150.848 11.6808 150.848 12.0328ZM159.957 7.30111C159.693 7.57187 159.376 7.70726 159.007 7.70726C158.637 7.70726 158.314 7.57187 158.037 7.30111C157.772 7.0168 157.641 6.68511 157.641 6.30603C157.641 5.92695 157.772 5.60203 158.037 5.33126C158.3 5.04695 158.624 4.9048 159.007 4.9048C159.389 4.9048 159.713 5.04695 159.977 5.33126C160.241 5.60203 160.373 5.92695 160.373 6.30603C160.373 6.68511 160.235 7.0168 159.957 7.30111ZM157.938 19.3842V9.23034H160.076V19.3842H157.938ZM168.083 11.3423H165.627V16.2162C165.627 16.6359 165.72 16.9405 165.905 17.13C166.09 17.3061 166.36 17.4076 166.716 17.4346C167.086 17.4482 167.542 17.4414 168.083 17.4143V19.3842C166.446 19.5873 165.271 19.4451 164.558 18.9577C163.845 18.4568 163.489 17.5429 163.489 16.2162V11.3423H161.667V9.23034H163.489V7.03711L165.627 6.38726V9.23034H168.083V11.3423ZM176.888 9.23034H179.165L175.364 19.7091C174.413 22.3355 172.803 23.5811 170.532 23.4457V21.3946C171.206 21.4353 171.747 21.2864 172.156 20.9479C172.565 20.623 172.902 20.1085 173.166 19.4045L173.265 19.2014L169.067 9.23034H171.404L174.354 16.602L176.888 9.23034Z" fill="black"/>
</g>
<defs>
<clipPath id="clip0_9429_11672">
<rect width="180" height="24" fill="white"/>
</clipPath>
</defs>
</svg>
